<?xml version="1.0" encoding="utf-8"?>
<!-- Generator: Adobe Illustrator 21.1.0, SVG Export Plug-In . SVG Version: 6.00 Build 0)  -->
<svg version="1.1" id="Layer_1" xmlns="http://www.w3.org/2000/svg" xmlns:xlink="http://www.w3.org/1999/xlink" x="0px" y="0px"
	 viewBox="0 0 1400 780" style="enable-background:new 0 0 1400 780;" xml:space="preserve">
<g>
	<defs>
		<rect id="SVGID_1_" width="1400" height="780"/>
	</defs>
	<clipPath id="SVGID_2_">
		<use xlink:href="#SVGID_1_"  style="overflow:visible;"/>
	</clipPath>
	<rect style="clip-path:url(#SVGID_2_);fill:#B86234;" width="1400" height="780"/>
	<g style="clip-path:url(#SVGID_2_);">
		<g>
			<g>
				<path style="fill:#835635;" d="M361.3,449.6c-2.3-1.5-5.1-1.9-7.6-1.4L94.5,503.7c-2.5,0.5-4.8,2-6.3,4.4
					c-1.5,2.3-1.9,5.1-1.4,7.6l43.6,203.4c0.5,2.5,2,4.8,4.4,6.3c2.3,1.5,5.1,1.9,7.6,1.4l259.2-55.5c2.5-0.5,4.8-2,6.3-4.4
					c1.5-2.3,1.9-5.1,1.4-7.6L365.7,456C365.1,453.5,363.6,451.1,361.3,449.6z"/>
				
					<rect x="225.4" y="473.5" transform="matrix(0.9778 -0.2094 0.2094 0.9778 -117.5279 64.9527)" style="fill:#835635;" width="45.3" height="228.2"/>
				
					<rect x="120.5" y="488.6" transform="matrix(0.9778 -0.2094 0.2094 0.9778 -117.5279 64.9527)" style="fill:#835635;" width="255" height="198"/>
				
					<rect x="139.6" y="669.4" transform="matrix(0.9778 -0.2094 0.2094 0.9778 -135.8242 70.9434)" style="fill:#835635;" width="255" height="15.1"/>
				
					<rect x="238.9" y="488.7" transform="matrix(0.9778 -0.2094 0.2094 0.9778 -116.0172 64.458)" style="fill:#835635;" width="15.1" height="182.9"/>
			</g>
			
				<rect x="126.9" y="530.9" transform="matrix(0.9778 -0.2094 0.2094 0.9778 -108.5445 46.7431)" style="fill:#835635;" width="79.1" height="10.2"/>
			
				<rect x="131.5" y="552.1" transform="matrix(0.9778 -0.2094 0.2094 0.9778 -112.8858 48.1646)" style="fill:#835635;" width="79.1" height="10.2"/>
			
				<rect x="136" y="573.3" transform="matrix(0.9778 -0.2094 0.2094 0.9778 -117.227 49.586)" style="fill:#835635;" width="79.1" height="10.2"/>
			
				<rect x="140.6" y="594.6" transform="matrix(0.9778 -0.2094 0.2094 0.9778 -121.5683 51.0074)" style="fill:#835635;" width="79.1" height="10.2"/>
			
				<rect x="145.1" y="615.8" transform="matrix(0.9778 -0.2094 0.2094 0.9778 -125.9095 52.4288)" style="fill:#835635;" width="79.1" height="10.2"/>
			
				<rect x="149.6" y="637" transform="matrix(0.9778 -0.2094 0.2094 0.9778 -130.2507 53.8503)" style="fill:#835635;" width="79.1" height="10.2"/>
			
				<rect x="261.7" y="502.1" transform="matrix(0.9778 -0.2094 0.2094 0.9778 -99.5143 74.3228)" style="fill:#835635;" width="79.1" height="10.2"/>
			
				<rect x="266.2" y="523.3" transform="matrix(0.9778 -0.2094 0.2094 0.9778 -103.8555 75.7442)" style="fill:#835635;" width="79.1" height="10.2"/>
			
				<rect x="270.8" y="544.5" transform="matrix(0.9778 -0.2094 0.2094 0.9778 -108.1967 77.1656)" style="fill:#835635;" width="79.1" height="10.2"/>
			
				<rect x="275.3" y="565.7" transform="matrix(0.9778 -0.2094 0.2094 0.9778 -112.538 78.5871)" style="fill:#835635;" width="79.1" height="10.2"/>
			
				<rect x="279.9" y="586.9" transform="matrix(0.9778 -0.2094 0.2094 0.9778 -116.8792 80.0085)" style="fill:#835635;" width="79.1" height="10.2"/>
			
				<rect x="284.4" y="608.1" transform="matrix(0.9778 -0.2094 0.2094 0.9778 -121.2205 81.4299)" style="fill:#835635;" width="79.1" height="10.2"/>
		</g>
	</g>
	<g style="clip-path:url(#SVGID_2_);">
		
			<rect x="334.3" y="385.5" transform="matrix(9.361392e-02 -0.9956 0.9956 9.361392e-02 -21.6688 754.9329)" style="fill:#835635;" width="139.1" height="7.8"/>
		
			<rect x="342" y="386.2" transform="matrix(9.361392e-02 -0.9956 0.9956 9.361392e-02 -15.3396 763.3495)" style="fill:#835635;" width="139.1" height="7.8"/>
		
			<rect x="349.8" y="386.9" transform="matrix(9.361392e-02 -0.9956 0.9956 9.361392e-02 -9.0104 771.7662)" style="fill:#835635;" width="139.1" height="7.8"/>
		<polygon style="fill:#835635;" points="429.8,322 423.2,307.7 415.5,307 406.4,319.8 		"/>
		<polygon style="fill:#835635;" points="429.8,322 422,321.2 420.6,307.5 423.2,307.7 		"/>
		<polygon style="fill:#835635;" points="423.2,307.7 420,300.6 415.5,307 		"/>
		
			<rect x="408.6" y="460" transform="matrix(9.361392e-02 -0.9956 0.9956 9.361392e-02 -88.0395 831.1951)" style="fill:#835635;" width="7.8" height="7.8"/>
		
			<rect x="396.9" y="455" transform="matrix(9.340037e-02 -0.9956 0.9956 9.340037e-02 -97.4548 818.678)" style="fill:#835635;" width="7.8" height="15.6"/>
		<path style="fill:#835635;" d="M415.8,470l0.2-1.8l-7.8-0.7l-0.2,1.8c-0.3,3-1.7,5.9-4.2,7.9c-1.4,1.1-3,1.9-4.6,2.3
			c1.2,0.6,2.5,0.9,3.8,1c3,0.3,6.1-0.6,8.6-2.6C414.1,475.9,415.6,473,415.8,470z"/>
		<path style="fill:#835635;" d="M408.1,469.3l0.2-1.8l-15.6-1.5l-0.2,1.8c-0.3,3,0.6,6.1,2.6,8.6c1.1,1.4,2.6,2.4,4.1,3.2
			c1.6-0.4,3.2-1.2,4.6-2.3C406.4,475.2,407.8,472.3,408.1,469.3z"/>
	</g>
	<g style="clip-path:url(#SVGID_2_);">
		<g>
			<g>
				<path style="fill:#495057;" d="M341.3,429.6c-2.3-1.5-5.1-1.9-7.6-1.4L74.5,483.7c-2.5,0.5-4.8,2-6.3,4.4
					c-1.5,2.3-1.9,5.1-1.4,7.6l43.6,203.4c0.5,2.5,2,4.8,4.4,6.3c2.3,1.5,5.1,1.9,7.6,1.4l259.2-55.5c2.5-0.5,4.8-2,6.3-4.4
					c1.5-2.3,1.9-5.1,1.4-7.6L345.7,436C345.1,433.5,343.6,431.1,341.3,429.6z"/>
				
					<rect x="205.4" y="453.5" transform="matrix(0.9778 -0.2094 0.2094 0.9778 -113.7835 60.3216)" style="fill:#1E262E;" width="45.3" height="228.2"/>
				
					<rect x="100.5" y="468.6" transform="matrix(0.9778 -0.2094 0.2094 0.9778 -113.7835 60.3216)" style="fill:#FFFFFF;" width="255" height="198"/>
				
					<rect x="119.6" y="649.4" transform="matrix(0.9778 -0.2094 0.2094 0.9778 -132.0798 66.3123)" style="fill:#CCCBCA;" width="255" height="15.1"/>
				
					<rect x="218.9" y="468.7" transform="matrix(0.9778 -0.2094 0.2094 0.9778 -112.2728 59.8269)" style="fill:#F2F2F2;" width="15.1" height="182.9"/>
			</g>
			
				<rect x="106.9" y="510.9" transform="matrix(0.9778 -0.2094 0.2094 0.9778 -104.8001 42.112)" style="fill:#CCCBCA;" width="79.1" height="10.2"/>
			
				<rect x="111.5" y="532.1" transform="matrix(0.9778 -0.2094 0.2094 0.9778 -109.1414 43.5334)" style="fill:#CCCBCA;" width="79.1" height="10.2"/>
			
				<rect x="116" y="553.3" transform="matrix(0.9778 -0.2094 0.2094 0.9778 -113.4826 44.9549)" style="fill:#CCCBCA;" width="79.1" height="10.2"/>
			
				<rect x="120.6" y="574.6" transform="matrix(0.9778 -0.2094 0.2094 0.9778 -117.8238 46.3763)" style="fill:#CCCBCA;" width="79.1" height="10.2"/>
			
				<rect x="125.1" y="595.8" transform="matrix(0.9778 -0.2094 0.2094 0.9778 -122.1651 47.7977)" style="fill:#CCCBCA;" width="79.1" height="10.2"/>
			
				<rect x="129.6" y="617" transform="matrix(0.9778 -0.2094 0.2094 0.9778 -126.5063 49.2192)" style="fill:#CCCBCA;" width="79.1" height="10.2"/>
			
				<rect x="241.7" y="482.1" transform="matrix(0.9778 -0.2094 0.2094 0.9778 -95.7699 69.6916)" style="fill:#CCCBCA;" width="79.1" height="10.2"/>
			
				<rect x="246.2" y="503.3" transform="matrix(0.9778 -0.2094 0.2094 0.9778 -100.1111 71.1131)" style="fill:#CCCBCA;" width="79.1" height="10.2"/>
			
				<rect x="250.8" y="524.5" transform="matrix(0.9778 -0.2094 0.2094 0.9778 -104.4523 72.5345)" style="fill:#CCCBCA;" width="79.1" height="10.2"/>
			
				<rect x="255.3" y="545.7" transform="matrix(0.9778 -0.2094 0.2094 0.9778 -108.7936 73.9559)" style="fill:#CCCBCA;" width="79.1" height="10.2"/>
			
				<rect x="259.9" y="566.9" transform="matrix(0.9778 -0.2094 0.2094 0.9778 -113.1348 75.3774)" style="fill:#CCCBCA;" width="79.1" height="10.2"/>
			
				<rect x="264.4" y="588.1" transform="matrix(0.9778 -0.2094 0.2094 0.9778 -117.476 76.7988)" style="fill:#CCCBCA;" width="79.1" height="10.2"/>
		</g>
	</g>
	<g style="clip-path:url(#SVGID_2_);">
		<g>
			<path style="fill:#835635;" d="M-125.6,170.5c-3.7-3.3-6.2-7.9-6.6-13.3c-0.4-5.3,1.5-10.3,4.7-14L208-240.5
				c3.3-3.7,7.9-6.2,13.3-6.6c5.3-0.4,10.3,1.5,14,4.7L447.8-56.6L86.9,356.3L-125.6,170.5z"/>
			<path style="fill:#835635;" d="M86.9,356.3c-21.1-18.5-35.2-45-37.2-75.2c-2-30.2,8.4-58.4,26.9-79.5L293-46.2
				c18.5-21.1,45-35.2,75.2-37.2c30.2-2,58.4,8.4,79.5,26.9l47.4,41.4c3.7,3.3,6.2,7.9,6.6,13.3c0.4,5.3-1.5,10.3-4.7,14
				L161.5,395.8c-3.3,3.7-7.9,6.2-13.3,6.6c-5.3,0.4-10.3-1.5-14-4.7L86.9,356.3z"/>
			<path style="fill:#835635;" d="M267,275.2l16.2-18.6l18.6,16.2c3,2.6,6.9,4,10.9,3.7c4-0.3,7.7-2.1,10.3-5.1l72.2-82.6
				c2.7-3,4-6.9,3.7-10.9c-0.3-4-2.1-7.7-5.1-10.3l-18.6-16.2l16.2-18.6l18.6,16.2c8,7,12.8,16.7,13.5,27.3
				c0.7,10.6-2.7,20.8-9.7,28.8l-72.2,82.6c-7,8-16.7,12.8-27.3,13.5c-10.6,0.7-20.8-2.7-28.8-9.7L267,275.2z"/>
			
				<rect x="420.4" y="63.3" transform="matrix(0.6582 -0.7529 0.7529 0.6582 103.6619 365.8549)" style="fill:#835635;" width="68.5" height="11"/>
			
				<rect x="177.7" y="340.9" transform="matrix(0.6582 -0.7529 0.7529 0.6582 -188.3229 278.0304)" style="fill:#835635;" width="68.5" height="11"/>
			
				<rect x="154.6" y="40.6" transform="matrix(0.6582 -0.7529 0.7529 0.6582 4.6837 165.6372)" style="fill:#835635;" width="60.3" height="74"/>
			
				<rect x="240.8" y="75.5" transform="matrix(0.6582 -0.7529 0.7529 0.6582 -22.5778 256.2718)" style="fill:#835635;" width="60.3" height="154.9"/>
			
				<rect x="68.4" y="-75.1" transform="matrix(0.6582 -0.7529 0.7529 0.6582 31.9452 75.0025)" style="fill:#835635;" width="60.3" height="154.9"/>
		</g>
	</g>
	<g style="clip-path:url(#SVGID_2_);">
		<g>
			<path style="fill:#343B43;" d="M-145.6,170.5c-3.7-3.3-6.2-7.9-6.6-13.3c-0.4-5.3,1.5-10.3,4.7-14L188-240.5
				c3.3-3.7,7.9-6.2,13.3-6.6c5.3-0.4,10.3,1.5,14,4.7L427.8-56.6L66.9,356.3L-145.6,170.5z"/>
			<path style="fill:#495057;" d="M66.9,356.3c-21.1-18.5-35.2-45-37.2-75.2c-2-30.2,8.4-58.4,26.9-79.5L273-46.2
				c18.5-21.1,45-35.2,75.2-37.2c30.2-2,58.4,8.4,79.5,26.9l47.4,41.4c3.7,3.3,6.2,7.9,6.6,13.3c0.4,5.3-1.5,10.3-4.7,14
				L141.5,395.8c-3.3,3.7-7.9,6.2-13.3,6.6c-5.3,0.4-10.3-1.5-14-4.7L66.9,356.3z"/>
			<path style="fill:#343B43;" d="M247,275.2l16.2-18.6l18.6,16.2c3,2.6,6.9,4,10.9,3.7c4-0.3,7.7-2.1,10.3-5.1l72.2-82.6
				c2.7-3,4-6.9,3.7-10.9c-0.3-4-2.1-7.7-5.1-10.3l-18.6-16.2l16.2-18.6l18.6,16.2c8,7,12.8,16.7,13.5,27.3
				c0.7,10.6-2.7,20.8-9.7,28.8l-72.2,82.6c-7,8-16.7,12.8-27.3,13.5c-10.6,0.7-20.8-2.7-28.8-9.7L247,275.2z"/>
			
				<rect x="400.4" y="63.3" transform="matrix(0.6582 -0.7529 0.7529 0.6582 96.8252 350.7975)" style="fill:#343B43;" width="68.5" height="11"/>
			
				<rect x="157.7" y="340.9" transform="matrix(0.6582 -0.7529 0.7529 0.6582 -195.1595 262.973)" style="fill:#343B43;" width="68.5" height="11"/>
			
				<rect x="134.6" y="40.6" transform="matrix(0.6582 -0.7529 0.7529 0.6582 -2.1529 150.5798)" style="fill:#FFFFFF;" width="60.3" height="74"/>
			
				<rect x="220.8" y="75.5" transform="matrix(0.6582 -0.7529 0.7529 0.6582 -29.4144 241.2144)" style="fill:#343B43;" width="60.3" height="154.9"/>
			
				<rect x="48.4" y="-75.1" transform="matrix(0.6582 -0.7529 0.7529 0.6582 25.1086 59.9451)" style="fill:#495057;" width="60.3" height="154.9"/>
		</g>
	</g>
	<g style="clip-path:url(#SVGID_2_);">
		<g>
			<path style="fill:#835635;" d="M1370,273l-65,271.5c-0.7,2.9-2.5,5.6-5.3,7.3s-6,2.1-8.9,1.4l-225.6-54.1
				c-2.9-0.7-5.6-2.5-7.3-5.3c-1.7-2.8-2.1-6-1.4-8.9l72.4-302.1c0.7-2.9,2.5-5.6,5.3-7.3c2.8-1.7,6-2.1,8.9-1.4l195,46.7L1370,273z
				"/>
			<path style="fill:#835635;" d="M1370,273l-30.6-7.3c-2.9-0.7-5.6-2.5-7.3-5.3c-1.7-2.8-2.1-6-1.4-8.9l7.3-30.6L1370,273z"/>
		</g>
		<g>
			
				<rect x="1225.2" y="216.6" transform="matrix(0.233 -0.9725 0.9725 0.233 651.9884 1428.8647)" style="fill:#835635;" width="13.2" height="169.1"/>
			
				<rect x="1219" y="242.3" transform="matrix(0.233 -0.9725 0.9725 0.233 622.2418 1442.6027)" style="fill:#835635;" width="13.2" height="169.1"/>
			
				<rect x="1196.4" y="197.5" transform="matrix(0.233 -0.9725 0.9725 0.233 689.5339 1353.8656)" style="fill:#835635;" width="13.2" height="84.5"/>
			
				<rect x="1231.4" y="190.8" transform="matrix(0.233 -0.9725 0.9725 0.233 681.7349 1415.1268)" style="fill:#835635;" width="13.2" height="169.1"/>
			
				<rect x="1182.1" y="396.7" transform="matrix(0.233 -0.9725 0.9725 0.233 443.7621 1525.0303)" style="fill:#835635;" width="13.2" height="169.1"/>
			
				<rect x="1188.2" y="370.9" transform="matrix(0.233 -0.9725 0.9725 0.233 473.5087 1511.2924)" style="fill:#835635;" width="13.2" height="169.1"/>
			
				<rect x="1194.4" y="345.2" transform="matrix(0.233 -0.9725 0.9725 0.233 503.2555 1497.5543)" style="fill:#835635;" width="13.2" height="169.1"/>
			
				<rect x="1200.6" y="319.5" transform="matrix(0.233 -0.9725 0.9725 0.233 533.002 1483.8165)" style="fill:#835635;" width="13.2" height="169.1"/>
			
				<rect x="1206.7" y="293.7" transform="matrix(0.233 -0.9725 0.9725 0.233 562.7485 1470.0786)" style="fill:#835635;" width="13.2" height="169.1"/>
			
				<rect x="1212.9" y="268" transform="matrix(0.233 -0.9725 0.9725 0.233 592.4951 1456.3407)" style="fill:#835635;" width="13.2" height="169.1"/>
		</g>
	</g>
	<g style="clip-path:url(#SVGID_2_);">
		<g>
			<path style="fill:#835635;" d="M1296.3,219.1l-17.2,278.6c-0.2,3-1.5,6-4,8.1c-2.4,2.2-5.5,3.1-8.5,2.9l-231.5-14.3
				c-3-0.2-6-1.5-8.1-4c-2.2-2.4-3.1-5.5-2.9-8.5l19.2-310c0.2-3,1.5-6,4-8.1c2.4-2.2,5.5-3.1,8.5-2.9l200.1,12.4L1296.3,219.1z"/>
			<path style="fill:#835635;" d="M1296.3,219.1l-31.4-1.9c-3-0.2-6-1.5-8.1-4c-2.2-2.4-3.1-5.5-2.9-8.5l1.9-31.4L1296.3,219.1z"/>
		</g>
		<g>
			
				<rect x="1158.5" y="186.1" transform="matrix(6.167119e-02 -0.9981 0.9981 6.167119e-02 823.0905 1416.8779)" style="fill:#835635;" width="13.2" height="169.1"/>
			
				<rect x="1156.9" y="212.5" transform="matrix(6.167119e-02 -0.9981 0.9981 6.167119e-02 795.2052 1440.0258)" style="fill:#835635;" width="13.2" height="169.1"/>
			
				<rect x="1119.6" y="173" transform="matrix(6.167119e-02 -0.9981 0.9981 6.167119e-02 841.8801 1326.0326)" style="fill:#835635;" width="13.2" height="84.5"/>
			
				<rect x="1160.1" y="159.7" transform="matrix(6.167119e-02 -0.9981 0.9981 6.167119e-02 850.9757 1393.7302)" style="fill:#835635;" width="13.2" height="169.1"/>
			
				<rect x="1147.1" y="371" transform="matrix(6.167119e-02 -0.9981 0.9981 6.167119e-02 627.8934 1578.9128)" style="fill:#835635;" width="13.2" height="169.1"/>
			
				<rect x="1148.7" y="344.6" transform="matrix(6.167119e-02 -0.9981 0.9981 6.167119e-02 655.7787 1555.7651)" style="fill:#835635;" width="13.2" height="169.1"/>
			
				<rect x="1150.3" y="318.2" transform="matrix(6.167119e-02 -0.9981 0.9981 6.167119e-02 683.6641 1532.6171)" style="fill:#835635;" width="13.2" height="169.1"/>
			
				<rect x="1152" y="291.8" transform="matrix(6.167119e-02 -0.9981 0.9981 6.167119e-02 711.5493 1509.4694)" style="fill:#835635;" width="13.2" height="169.1"/>
			
				<rect x="1153.6" y="265.4" transform="matrix(6.167119e-02 -0.9981 0.9981 6.167119e-02 739.4346 1486.3215)" style="fill:#835635;" width="13.2" height="169.1"/>
			
				<rect x="1155.2" y="239" transform="matrix(6.167119e-02 -0.9981 0.9981 6.167119e-02 767.3198 1463.1737)" style="fill:#835635;" width="13.2" height="169.1"/>
		</g>
	</g>
	<g style="clip-path:url(#SVGID_2_);">
		<g>
			<path style="fill:#FFFFFF;" d="M1350,253l-65,271.5c-0.7,2.9-2.5,5.6-5.3,7.3s-6,2.1-8.9,1.4l-225.6-54.1
				c-2.9-0.7-5.6-2.5-7.3-5.3c-1.7-2.8-2.1-6-1.4-8.9l72.4-302.1c0.7-2.9,2.5-5.6,5.3-7.3c2.8-1.7,6-2.1,8.9-1.4l195,46.7L1350,253z
				"/>
			<path style="fill:#E6E5E5;" d="M1350,253l-30.6-7.3c-2.9-0.7-5.6-2.5-7.3-5.3c-1.7-2.8-2.1-6-1.4-8.9l7.3-30.6L1350,253z"/>
		</g>
		<g>
			
				<rect x="1205.2" y="196.6" transform="matrix(0.233 -0.9725 0.9725 0.233 656.098 1394.0753)" style="fill:#CCCBCA;" width="13.2" height="169.1"/>
			
				<rect x="1199" y="222.3" transform="matrix(0.233 -0.9725 0.9725 0.233 626.3514 1407.8132)" style="fill:#CCCBCA;" width="13.2" height="169.1"/>
			
				<rect x="1176.4" y="177.5" transform="matrix(0.233 -0.9725 0.9725 0.233 693.6435 1319.0762)" style="fill:#343B43;" width="13.2" height="84.5"/>
			
				<rect x="1211.4" y="170.8" transform="matrix(0.233 -0.9725 0.9725 0.233 685.8445 1380.3374)" style="fill:#CCCBCA;" width="13.2" height="169.1"/>
			
				<rect x="1162.1" y="376.7" transform="matrix(0.233 -0.9725 0.9725 0.233 447.8717 1490.2408)" style="fill:#CCCBCA;" width="13.2" height="169.1"/>
			
				<rect x="1168.2" y="350.9" transform="matrix(0.233 -0.9725 0.9725 0.233 477.6183 1476.5029)" style="fill:#CCCBCA;" width="13.2" height="169.1"/>
			
				<rect x="1174.4" y="325.2" transform="matrix(0.233 -0.9725 0.9725 0.233 507.3651 1462.7649)" style="fill:#CCCBCA;" width="13.2" height="169.1"/>
			
				<rect x="1180.6" y="299.5" transform="matrix(0.233 -0.9725 0.9725 0.233 537.1116 1449.0271)" style="fill:#CCCBCA;" width="13.2" height="169.1"/>
			
				<rect x="1186.7" y="273.7" transform="matrix(0.233 -0.9725 0.9725 0.233 566.8582 1435.2892)" style="fill:#CCCBCA;" width="13.2" height="169.1"/>
			
				<rect x="1192.9" y="248" transform="matrix(0.233 -0.9725 0.9725 0.233 596.6047 1421.5513)" style="fill:#CCCBCA;" width="13.2" height="169.1"/>
		</g>
	</g>
	<path style="clip-path:url(#SVGID_2_);fill:#CCCBCA;" d="M1251.8,166.3l-200.1-12.4c-3-0.2-6.1,0.8-8.5,2.9c-2.4,2.2-3.8,5.1-4,8.1
		L1020,475c-0.2,3,0.8,6.1,2.9,8.5c2.2,2.4,5.1,3.8,8.1,4l231.5,14.3c3,0.2,6.1-0.8,8.5-2.9s3.8-5.1,4-8.1l17.2-278.6L1251.8,166.3z
		"/>
	<g style="clip-path:url(#SVGID_2_);">
		<g>
			<path style="fill:#FFFFFF;" d="M1276.3,199.1l-17.2,278.6c-0.2,3-1.5,6-4,8.1c-2.4,2.2-5.5,3.1-8.5,2.9l-231.5-14.3
				c-3-0.2-6-1.5-8.1-4c-2.2-2.4-3.1-5.5-2.9-8.5l19.2-310c0.2-3,1.5-6,4-8.1c2.4-2.2,5.5-3.1,8.5-2.9l200.1,12.4L1276.3,199.1z"/>
			<path style="fill:#E6E5E5;" d="M1276.3,199.1l-31.4-1.9c-3-0.2-6-1.5-8.1-4c-2.2-2.4-3.1-5.5-2.9-8.5l1.9-31.4L1276.3,199.1z"/>
		</g>
		<g>
			
				<rect x="1138.5" y="166.1" transform="matrix(6.167119e-02 -0.9981 0.9981 6.167119e-02 824.2858 1378.1495)" style="fill:#CCCBCA;" width="13.2" height="169.1"/>
			
				<rect x="1136.9" y="192.5" transform="matrix(6.167119e-02 -0.9981 0.9981 6.167119e-02 796.4006 1401.2972)" style="fill:#CCCBCA;" width="13.2" height="169.1"/>
			
				<rect x="1099.6" y="153" transform="matrix(6.167119e-02 -0.9981 0.9981 6.167119e-02 843.0754 1287.3041)" style="fill:#343B43;" width="13.2" height="84.5"/>
			
				<rect x="1140.1" y="139.7" transform="matrix(6.167119e-02 -0.9981 0.9981 6.167119e-02 852.171 1355.0017)" style="fill:#CCCBCA;" width="13.2" height="169.1"/>
			
				<rect x="1127.1" y="351" transform="matrix(6.167119e-02 -0.9981 0.9981 6.167119e-02 629.0888 1540.1843)" style="fill:#CCCBCA;" width="13.2" height="169.1"/>
			
				<rect x="1128.7" y="324.6" transform="matrix(6.167119e-02 -0.9981 0.9981 6.167119e-02 656.974 1517.0366)" style="fill:#CCCBCA;" width="13.2" height="169.1"/>
			
				<rect x="1130.3" y="298.2" transform="matrix(6.167119e-02 -0.9981 0.9981 6.167119e-02 684.8594 1493.8887)" style="fill:#CCCBCA;" width="13.2" height="169.1"/>
			
				<rect x="1132" y="271.8" transform="matrix(6.167119e-02 -0.9981 0.9981 6.167119e-02 712.7447 1470.7408)" style="fill:#CCCBCA;" width="13.2" height="169.1"/>
			
				<rect x="1133.6" y="245.4" transform="matrix(6.167119e-02 -0.9981 0.9981 6.167119e-02 740.6299 1447.593)" style="fill:#CCCBCA;" width="13.2" height="169.1"/>
			
				<rect x="1135.2" y="219" transform="matrix(6.167119e-02 -0.9981 0.9981 6.167119e-02 768.5151 1424.4452)" style="fill:#CCCBCA;" width="13.2" height="169.1"/>
		</g>
	</g>
	<g style="clip-path:url(#SVGID_2_);">
		<g>
			<g>
				<g>
					<path style="fill:#835635;" d="M523.8,194v446.6c0,20.1-16.3,36.4-36.4,36.4h410.2c9.3,0,18.6-3.6,25.7-10.7
						c7.1-7.1,10.7-16.4,10.7-25.7V194H523.8z"/>
					<g>
						
							<rect x="531.3" y="175.9" transform="matrix(0.7073 -0.7069 0.7069 0.7073 23.6857 445.1937)" style="fill:#835635;" width="36.3" height="36.3"/>
						<polygon style="fill:#835635;" points="600.7,219.6 575,194 600.7,168.4 626.3,194 						"/>
						<polygon style="fill:#835635;" points="652,219.6 626.3,194 652,168.4 677.6,194 						"/>
						<polygon style="fill:#835635;" points="703.2,219.6 677.6,194 703.2,168.4 728.9,194 						"/>
						<polygon style="fill:#835635;" points="754.5,219.6 728.9,194 754.5,168.4 780.2,194 						"/>
						
							<rect x="787.7" y="175.9" transform="matrix(0.7073 -0.7069 0.7069 0.7073 98.7335 626.4356)" style="fill:#835635;" width="36.3" height="36.3"/>
						<polygon style="fill:#835635;" points="857.1,219.6 831.4,194 857.1,168.4 882.7,194 						"/>
						<polygon style="fill:#835635;" points="908.3,219.6 882.7,194 908.3,168.4 934,194 						"/>
					</g>
					<path style="fill:#835635;" d="M487.4,437.8c-20.1,0-36.4,16.3-36.4,36.4v166.4c0,20.1,16.3,36.4,36.4,36.4
						c20.1,0,36.4-16.3,36.4-36.4V437.8H487.4z"/>
				</g>
				<g>
					<g>
						<rect x="570.1" y="608.1" style="fill:#835635;" width="148.3" height="18.9"/>
						<rect x="570.1" y="570.2" style="fill:#835635;" width="148.3" height="18.9"/>
						<rect x="570.1" y="532.4" style="fill:#835635;" width="148.3" height="18.9"/>
						<rect x="570.1" y="494.5" style="fill:#835635;" width="148.3" height="18.9"/>
						<rect x="570.1" y="456.7" style="fill:#835635;" width="148.3" height="18.9"/>
						<rect x="570.1" y="343.2" style="fill:#835635;" width="148.3" height="94.6"/>
					</g>
					<g>
						<rect x="739.4" y="608.1" style="fill:#835635;" width="148.3" height="18.9"/>
						<rect x="739.4" y="494.5" style="fill:#835635;" width="148.3" height="94.6"/>
						<rect x="739.4" y="456.7" style="fill:#835635;" width="148.3" height="18.9"/>
						<rect x="739.4" y="418.8" style="fill:#835635;" width="148.3" height="18.9"/>
						<rect x="739.4" y="381" style="fill:#835635;" width="148.3" height="18.9"/>
						<rect x="739.4" y="343.2" style="fill:#835635;" width="148.3" height="18.9"/>
					</g>
					<rect x="570.1" y="305.3" style="fill:#835635;" width="317.6" height="18.9"/>
				</g>
			</g>
		</g>
		<text transform="matrix(1 0 0 1 569.8462 282.8638)" style="fill:#835635; font-family:'OpenSans-Bold'; font-size:56.6112px;">JOB SEEKER</text>
	</g>
	<g style="clip-path:url(#SVGID_2_);">
		<path style="fill:#835635;" d="M505.5,742.8L443,751l5.5-36.5l-10-54.5c-0.2-0.9-0.2-1.9,0-2.9l15.3-76c0.5-2.5,2.1-4.7,4.4-5.9
			l64.4-34.5c0.9-0.5,1.9-0.8,2.9-0.9l53.6-7.8c5.9-0.8,11.3,3.2,12.1,9.1l2.5,17l0.9-0.1c3.6-0.5,7,2,7.5,5.6l2.7,18.9l0,0
			c3.5-0.5,6.8,1.9,7.3,5.4l1.9,13c0.5,3.4-1.8,6.6-5.2,7.2l0,0c-1.1,0.2-1.9,1.3-1.8,2.4l0.6,4.4c0.9,6.8-3.9,13.1-10.7,14.1
			l-39,5.7c-3.6,0.5-6.6,3.2-7.6,6.7l-10.3,38.7c-3.9,14.5-10.4,28.1-18.4,40.8C517.5,727.3,514.5,730.3,505.5,742.8z"/>
		<path style="fill:#835635;" d="M554.7,635.2l-1.7,1.9c-1,1.1-1.7,2.3-2.3,3.7l-2,5.1l-1-9.5c-0.3-2.6-0.1-5.2,0.5-7.7l4.1-17.5
			l29.5-43.2c3.3-4.8,2.3-11.3-2.2-15l0,0c-4.7-3.8-11.6-3.1-15.5,1.5L526.2,600c-2.9,3.5-7.8,4.4-11.8,2.2L484.7,586
			c-2.2-1.2-2.8-4-1.3-6l0,0c1.2-1.7,3.5-2.1,5.3-1.1l25.9,15c2.7,1.6,6.1,1,8.1-1.4l35.8-42.6c6.6-7.9,18.4-9,26.3-2.4l0,0
			c7.5,6.3,9,17.3,3.3,25.3l-28.2,42.1L554.7,635.2z"/>
		<polygon style="fill:#835635;" points="604.8,582.5 578,587 582.8,580.3 604,577.2 		"/>
		<path style="fill:#835635;" d="M608.8,608.2l-49.8,7.2l0.5-2.5l3.7-5.2l50.6-6.7C613.9,601,614.3,607.4,608.8,608.2z"/>
		<polygon style="fill:#835635;" points="593.7,558.1 591.3,558.5 589.2,552.7 592.8,552.2 		"/>
		<polygon style="fill:#835635;" points="545.7,565.1 525.1,568.1 524.2,562.1 551.5,558.1 		"/>
		<path style="fill:#835635;" d="M428.5,768.4l97.8,0.1c5.3,0.1,9.6,4.4,9.6,9.8V893H418.7V776.6
			C418.9,771.2,423.1,768.3,428.5,768.4z"/>
		<path style="fill:#835635;" d="M519.1,768.4l0.1-25.2c0-2.6-2.1-4.6-4.6-4.6l-78.3-0.2c-2.6,0-4.6,2.1-4.6,4.6l-0.1,25.2
			L519.1,768.4z"/>
		
			<rect x="471.9" y="721.1" transform="matrix(-2.587154e-03 1 -1 -2.587154e-03 1241.496 291.5221)" style="fill:#835635;" width="6.8" height="87.6"/>
	</g>
	<g style="clip-path:url(#SVGID_2_);">
		<g>
			<g>
				<g>
					<path style="fill:#835635;" d="M1341.1,431.5l-84.1-26.8c-8-2.5-16.6,1.9-19.1,9.9L1181,593.4c-2.5,8,1.9,16.6,9.9,19.1
						l84.1,26.8c8,2.5,16.5-1.9,19.1-9.9l56.9-178.7C1353.5,442.7,1349.1,434.1,1341.1,431.5z"/>
					
						<rect x="1189.9" y="471.3" transform="matrix(0.3035 -0.9528 0.9528 0.3035 384.4228 1569.8888)" style="fill:#835635;" width="152.1" height="101.4"/>
					<path style="fill:#835635;" d="M1227.5,611.8c-2.1-0.7-3.3-3-2.6-5.1l0.4-1.2c0.7-2.2,3-3.3,5.1-2.7l17.9,5.7
						c2.1,0.7,3.3,3,2.6,5.1l-0.4,1.2c-0.7,2.2-3,3.3-5.1,2.7L1227.5,611.8z"/>
					<path style="fill:#835635;" d="M1297.7,435c-0.6,2-2.8,3.1-4.8,2.5c-2-0.6-3.1-2.8-2.5-4.8c0.6-2,2.8-3.1,4.8-2.5
						C1297.3,430.8,1298.4,433,1297.7,435z"/>
					<path style="fill:#835635;" d="M1295.5,434.3c-0.3,0.8-1.1,1.2-1.9,1c-0.8-0.3-1.3-1.1-1-1.9c0.3-0.8,1.1-1.2,1.9-1
						C1295.4,432.6,1295.8,433.5,1295.5,434.3z"/>
				</g>
			</g>
		</g>
		<g>
			
				<ellipse transform="matrix(0.3035 -0.9528 0.9528 0.3035 384.4329 1569.8928)" style="fill:#835635;" cx="1266" cy="522" rx="31.6" ry="31.6"/>
			<g>
				<path style="fill:#835635;" d="M1255.3,527.5c5.7,11,14.9,17.4,20.7,14.4l-5.3-10.3c-2.3,1.2-6.4-2.1-9.1-7.4
					c-2.7-5.3-3-10.5-0.7-11.7l-5.3-10.3C1249.7,505.3,1249.6,516.6,1255.3,527.5z"/>
				<path style="fill:#835635;" d="M1258.1,501c0.3-0.2,0.7-0.2,1.1-0.1c0.4,0.1,0.7,0.4,0.8,0.7l4,7.8c0.2,0.3,0.2,0.7,0.1,1.1
					c-0.1,0.4-0.4,0.7-0.7,0.8l-2.5,1.3l-5.3-10.3L1258.1,501z"/>
				<path style="fill:#835635;" d="M1273.2,530.3c0.3-0.2,0.7-0.2,1.1-0.1c0.4,0.1,0.7,0.4,0.8,0.7l4,7.8c0.2,0.3,0.2,0.7,0.1,1.1
					c-0.1,0.4-0.4,0.7-0.7,0.8l-2.5,1.3l-5.3-10.3L1273.2,530.3z"/>
			</g>
		</g>
	</g>
	<g style="clip-path:url(#SVGID_2_);">
		<g>
			
				<rect x="926.1" y="556.1" transform="matrix(0.7532 -0.6578 0.6578 0.7532 -141.5781 754.8248)" style="fill:#835635;" width="17.9" height="20"/>
			<g>
				<path style="fill:#835635;" d="M807.1,419.6c-39.3,34.3-43.3,93.9-9,133.1c34.3,39.3,93.9,43.3,133.1,9
					c39.2-34.3,43.3-93.9,9-133.1C906,389.4,846.4,385.3,807.1,419.6z"/>
				<path style="fill:#835635;" d="M918.8,547.6c-31.4,27.4-79.1,24.2-106.5-7.2c-27.4-31.4-24.2-79.1,7.2-106.5
					c31.4-27.4,79.1-24.2,106.5,7.2C953.5,472.4,950.2,520.1,918.8,547.6z"/>
				<path style="fill:#835635;" d="M908.9,536.2c-25.1,21.9-63.3,19.4-85.3-5.8c-22-25.1-19.4-63.3,5.8-85.3
					c25.1-22,63.3-19.4,85.3,5.7C936.7,476.1,934.1,514.3,908.9,536.2z"/>
				
					<ellipse transform="matrix(0.7532 -0.6578 0.6578 0.7532 -108.2373 692.8917)" style="fill:#835635;" cx="869.2" cy="490.7" rx="10.5" ry="10.5"/>
				<path style="fill:#835635;" d="M841.6,472.1c8.6,9.8,7.6,24.8-2.2,33.4c-9.8,8.6-24.8,7.6-33.4-2.3c-8.6-9.8-7.6-24.8,2.3-33.4
					C818.1,461.2,833,462.2,841.6,472.1z"/>
			</g>
			<path style="fill:#835635;" d="M960.5,568.4l55.2,63.2c6.4,7.3,5.7,18.4-1.7,24.9c-7.3,6.4-18.5,5.7-24.9-1.7l-55.2-63.2
				L960.5,568.4z"/>
			<path style="fill:#835635;" d="M960.4,568.4l-26.5,23.2l-1.4-1.6c-1.1-1.2-1.7-2.8-1.5-4.6c0.1-1.7,0.9-3.3,2.1-4.3l17.1-14.9
				c1.2-1.1,2.8-1.6,4.6-1.5c1.7,0.1,3.3,0.9,4.3,2.1L960.4,568.4z"/>
		</g>
		<g>
			<path style="fill:#835635;" d="M975.3,733.5l73.6-3.3v-14.6c0-2.6,0.9-5.1,2.5-7.1l14.7-18.4c1-1.2,2.8-9.7,2.8-11.2l-1.2-72.4
				c0-4.2-3.4-7.6-7.6-7.6h-10.1c-2.3,0-4.2-1.8-4.2-4.1l-0.3-9.7c-0.1-3.7-3.2-6.6-6.8-6.5l-18.2,0.4c-3.4,0.1-6.1-2.7-6-6.1l0.3-7
				c0-5.3-3.8-8.3-9.1-7.9l-15.5,0.1c-1.2,0-2.2-1-2.2-2.2l0-1.3c0-7.9-6.4-14.2-14.2-14.2h-0.4c-8.2,0-14.7,6.6-14.7,14.6
				c0,32.2,0,62.1,0,56.3c0-12.6,0.1-3.5,0-3.2l-8.3,38.1c-0.3,0.9-0.4,1.8-0.4,2.7v36.6c0,1.8,0.6,3.6,1.7,5.1l16.5,16.7
				c1.8,1.9,3.1,4.2,3.7,6.8L975.3,733.5z"/>
			<path style="fill:#835635;" d="M992.7,595.7h-2.4c-1.4,0-2.5-1.1-2.5-2.5V557l2.2,1h5.2v35.2C995.1,594.6,994,595.7,992.7,595.7z
				"/>
			<path style="fill:#835635;" d="M1021.7,616.4h-3c-1.2,0-2.2-1-2.2-2.2v-36.6l3,1.2l4.3-0.1v35.5
				C1023.9,615.4,1022.9,616.4,1021.7,616.4z"/>
			<path style="fill:#835635;" d="M1050.2,636.3h-3.3c-1.1,0-2-0.9-2-2v-44.1l0.5-3.9l0.9,9.9c0.3,1.5,1.7,2.5,3.2,2.5h2.8v35.6
				C1052.3,635.4,1051.3,636.3,1050.2,636.3z"/>
			<path style="fill:#835635;" d="M1056.6,759.7l-96.1,0.1c-5.2,0.1-9.4,4.4-9.4,9.6L949.7,954h119.1l-2.6-186.3
				C1066.1,762.4,1061.9,759.6,1056.6,759.7z"/>
			<path style="fill:#835635;" d="M967.6,762.5l-0.1-27.5c0-2.5,2-4.6,4.5-4.6l76.9-0.2c2.5,0,4.6,2,4.6,4.5l0.1,27.5L967.6,762.5z"
				/>
			
				<rect x="1007.2" y="713.2" transform="matrix(2.587154e-03 1 -1 2.587154e-03 1764.1843 -256.2951)" style="fill:#835635;" width="6.7" height="86"/>
		</g>
	</g>
	<g style="clip-path:url(#SVGID_2_);">
		<g>
			<g>
				<g>
					<path style="fill:#343B43;" d="M1327.1,413.5l-84.1-26.8c-8-2.5-16.6,1.9-19.1,9.9L1167,575.4c-2.5,8,1.9,16.6,9.9,19.1
						l84.1,26.8c8,2.5,16.5-1.9,19.1-9.9l56.9-178.7C1339.5,424.7,1335.1,416.1,1327.1,413.5z"/>
					
						<rect x="1175.9" y="453.3" transform="matrix(0.3035 -0.9528 0.9528 0.3035 391.8224 1544.0114)" style="fill:#FECE66;" width="152.1" height="101.4"/>
					<path style="fill:#495057;" d="M1213.5,593.8c-2.1-0.7-3.3-3-2.6-5.1l0.4-1.2c0.7-2.2,3-3.3,5.1-2.7l17.9,5.7
						c2.1,0.7,3.3,3,2.6,5.1l-0.4,1.2c-0.7,2.2-3,3.3-5.1,2.7L1213.5,593.8z"/>
					<path style="fill:#495057;" d="M1283.7,417c-0.6,2-2.8,3.1-4.8,2.5c-2-0.6-3.1-2.8-2.5-4.8c0.6-2,2.8-3.1,4.8-2.5
						C1283.3,412.8,1284.4,415,1283.7,417z"/>
					<path style="fill:#343B43;" d="M1281.5,416.3c-0.3,0.8-1.1,1.2-1.9,1c-0.8-0.3-1.3-1.1-1-1.9c0.3-0.8,1.1-1.2,1.9-1
						C1281.4,414.6,1281.8,415.5,1281.5,416.3z"/>
				</g>
			</g>
		</g>
		<g>
			
				<ellipse transform="matrix(0.3035 -0.9528 0.9528 0.3035 391.8325 1544.0154)" style="fill:#FFFFFF;" cx="1252" cy="504" rx="31.6" ry="31.6"/>
			<g>
				<path style="fill:#343B43;" d="M1241.3,509.5c5.7,11,14.9,17.4,20.7,14.4l-5.3-10.3c-2.3,1.2-6.4-2.1-9.1-7.4
					c-2.7-5.3-3-10.5-0.7-11.7l-5.3-10.3C1235.7,487.3,1235.6,498.6,1241.3,509.5z"/>
				<path style="fill:#343B43;" d="M1244.1,483c0.3-0.2,0.7-0.2,1.1-0.1c0.4,0.1,0.7,0.4,0.8,0.7l4,7.8c0.2,0.3,0.2,0.7,0.1,1.1
					c-0.1,0.4-0.4,0.7-0.7,0.8l-2.5,1.3l-5.3-10.3L1244.1,483z"/>
				<path style="fill:#343B43;" d="M1259.2,512.3c0.3-0.2,0.7-0.2,1.1-0.1c0.4,0.1,0.7,0.4,0.8,0.7l4,7.8c0.2,0.3,0.2,0.7,0.1,1.1
					c-0.1,0.4-0.4,0.7-0.7,0.8l-2.5,1.3l-5.3-10.3L1259.2,512.3z"/>
			</g>
		</g>
	</g>
	<g style="clip-path:url(#SVGID_2_);">
		<g>
			<g>
				<g>
					<path style="fill:#FFFFFF;" d="M493.8,184v446.6c0,20.1-16.3,36.4-36.4,36.4h410.2c9.3,0,18.6-3.6,25.7-10.7
						c7.1-7.1,10.7-16.4,10.7-25.7V184H493.8z"/>
					<g>
						
							<rect x="501.3" y="165.9" transform="matrix(0.7073 -0.7069 0.7069 0.7073 21.9733 421.0582)" style="fill:#FFFFFF;" width="36.3" height="36.3"/>
						<polygon style="fill:#FFFFFF;" points="570.7,209.6 545,184 570.7,158.4 596.3,184 						"/>
						<polygon style="fill:#FFFFFF;" points="622,209.6 596.3,184 622,158.4 647.6,184 						"/>
						<polygon style="fill:#FFFFFF;" points="673.2,209.6 647.6,184 673.2,158.4 698.9,184 						"/>
						<polygon style="fill:#FFFFFF;" points="724.5,209.6 698.9,184 724.5,158.4 750.2,184 						"/>
						
							<rect x="757.7" y="165.9" transform="matrix(0.7073 -0.7069 0.7069 0.7073 97.0211 602.3002)" style="fill:#FFFFFF;" width="36.3" height="36.3"/>
						<polygon style="fill:#FFFFFF;" points="827.1,209.6 801.4,184 827.1,158.4 852.7,184 						"/>
						<polygon style="fill:#FFFFFF;" points="878.3,209.6 852.7,184 878.3,158.4 904,184 						"/>
					</g>
					<path style="fill:#CCCBCA;" d="M457.4,427.8c-20.1,0-36.4,16.3-36.4,36.4v166.4c0,20.1,16.3,36.4,36.4,36.4
						c20.1,0,36.4-16.3,36.4-36.4V427.8H457.4z"/>
				</g>
				<g>
					<g>
						<rect x="540.1" y="598.1" style="fill:#E6E5E5;" width="148.3" height="18.9"/>
						<rect x="540.1" y="560.2" style="fill:#E6E5E5;" width="148.3" height="18.9"/>
						<rect x="540.1" y="522.4" style="fill:#E6E5E5;" width="148.3" height="18.9"/>
						<rect x="540.1" y="484.5" style="fill:#E6E5E5;" width="148.3" height="18.9"/>
						<rect x="540.1" y="446.7" style="fill:#E6E5E5;" width="148.3" height="18.9"/>
						<rect x="540.1" y="333.2" style="fill:#CCCBCA;" width="148.3" height="94.6"/>
					</g>
					<g>
						<rect x="709.4" y="598.1" style="fill:#E6E5E5;" width="148.3" height="18.9"/>
						<rect x="709.4" y="484.5" style="fill:#EA6552;" width="148.3" height="94.6"/>
						<rect x="709.4" y="446.7" style="fill:#E6E5E5;" width="148.3" height="18.9"/>
						<rect x="709.4" y="408.8" style="fill:#E6E5E5;" width="148.3" height="18.9"/>
						<rect x="709.4" y="371" style="fill:#E6E5E5;" width="148.3" height="18.9"/>
						<rect x="709.4" y="333.2" style="fill:#E6E5E5;" width="148.3" height="18.9"/>
					</g>
					<rect x="540.1" y="295.3" style="fill:#343B43;" width="317.6" height="18.9"/>
				</g>
			</g>
		</g>
		<g>
			<path style="fill:#343B43;" d="M540.7,284.8c-1.9,0-3.6-0.2-5.1-0.6V277c1.5,0.4,2.8,0.6,4,0.6c1.9,0,3.2-0.6,4-1.8
				c0.8-1.2,1.2-3,1.2-5.5v-37.9h8.6v37.8c0,4.7-1.1,8.3-3.2,10.8C548.1,283.5,544.9,284.8,540.7,284.8z"/>
			<path style="fill:#343B43;" d="M600.4,252.6c0,6.7-1.7,11.8-5,15.4c-3.3,3.6-8.1,5.4-14.3,5.4s-10.9-1.8-14.3-5.4
				c-3.3-3.6-5-8.8-5-15.5c0-6.7,1.7-11.9,5-15.4c3.3-3.5,8.1-5.3,14.3-5.3c6.2,0,11,1.8,14.2,5.4
				C598.7,240.8,600.4,245.9,600.4,252.6z M570.9,252.6c0,4.5,0.9,7.9,2.6,10.2s4.3,3.4,7.7,3.4c6.8,0,10.3-4.5,10.3-13.6
				c0-9.1-3.4-13.7-10.2-13.7c-3.4,0-6,1.1-7.7,3.4C571.7,244.7,570.9,248.1,570.9,252.6z"/>
			<path style="fill:#343B43;" d="M608.7,232.5h12.6c5.7,0,9.9,0.8,12.5,2.4c2.6,1.6,3.9,4.2,3.9,7.8c0,2.4-0.6,4.4-1.7,5.9
				s-2.6,2.5-4.5,2.8v0.3c2.6,0.6,4.4,1.6,5.5,3.2s1.7,3.6,1.7,6.2c0,3.7-1.3,6.6-4,8.6c-2.7,2.1-6.3,3.1-10.8,3.1h-15.1V232.5z
				 M617.3,248.5h5c2.3,0,4-0.4,5-1.1c1-0.7,1.6-1.9,1.6-3.6c0-1.5-0.6-2.7-1.7-3.3c-1.1-0.7-2.9-1-5.4-1h-4.5V248.5z M617.3,255.3
				v10.5h5.6c2.4,0,4.1-0.5,5.2-1.4c1.1-0.9,1.7-2.3,1.7-4.1c0-3.4-2.4-5-7.2-5H617.3z"/>
			<path style="fill:#EA6552;" d="M685.3,261.6c0,3.6-1.3,6.5-3.9,8.6c-2.6,2.1-6.3,3.2-11,3.2c-4.3,0-8.1-0.8-11.4-2.4v-8
				c2.7,1.2,5,2.1,6.9,2.6c1.9,0.5,3.6,0.7,5.2,0.7c1.9,0,3.3-0.4,4.3-1.1c1-0.7,1.5-1.8,1.5-3.2c0-0.8-0.2-1.5-0.7-2.1
				c-0.4-0.6-1.1-1.2-1.9-1.8s-2.6-1.5-5.2-2.7c-2.5-1.2-4.3-2.3-5.6-3.3c-1.2-1.1-2.2-2.3-3-3.7c-0.7-1.4-1.1-3.1-1.1-5
				c0-3.6,1.2-6.4,3.6-8.4c2.4-2,5.8-3.1,10-3.1c2.1,0,4.1,0.2,6,0.7s3.9,1.2,6,2.1l-2.8,6.7c-2.2-0.9-3.9-1.5-5.3-1.9
				s-2.8-0.5-4.2-0.5c-1.6,0-2.9,0.4-3.7,1.1c-0.9,0.8-1.3,1.7-1.3,3c0,0.8,0.2,1.4,0.5,2c0.3,0.6,0.9,1.1,1.7,1.6
				c0.8,0.5,2.6,1.5,5.4,2.8c3.8,1.8,6.4,3.6,7.8,5.4C684.6,256.8,685.3,259,685.3,261.6z"/>
			<path style="fill:#EA6552;" d="M715.9,272.9h-23.3v-40.4h23.3v7h-14.7v8.9h13.7v7h-13.7v10.4h14.7V272.9z"/>
			<path style="fill:#EA6552;" d="M747.6,272.9h-23.3v-40.4h23.3v7h-14.7v8.9h13.7v7h-13.7v10.4h14.7V272.9z"/>
			<path style="fill:#EA6552;" d="M788.6,272.9h-9.7l-10.6-17l-3.6,2.6v14.4h-8.6v-40.4h8.6v18.5l3.4-4.8l10.9-13.7h9.5l-14.1,17.9
				L788.6,272.9z"/>
			<path style="fill:#EA6552;" d="M816.9,272.9h-23.3v-40.4h23.3v7h-14.7v8.9h13.7v7h-13.7v10.4h14.7V272.9z"/>
			<path style="fill:#EA6552;" d="M833.9,257.4v15.5h-8.6v-40.4h11.8c5.5,0,9.6,1,12.2,3s4,5,4,9.1c0,2.4-0.7,4.5-2,6.3
				s-3.2,3.3-5.6,4.4c6.1,9.1,10,15,11.9,17.6h-9.5l-9.6-15.5H833.9z M833.9,250.4h2.8c2.7,0,4.7-0.5,6-1.4c1.3-0.9,1.9-2.3,1.9-4.3
				c0-1.9-0.7-3.3-2-4.1s-3.4-1.2-6.1-1.2h-2.6V250.4z"/>
		</g>
	</g>
	<g style="clip-path:url(#SVGID_2_);">
		<path style="fill:#FFD7B7;" d="M475.5,732.8L413,741l5.5-36.5l-10-54.5c-0.2-0.9-0.2-1.9,0-2.9l15.3-76c0.5-2.5,2.1-4.7,4.4-5.9
			l64.4-34.5c0.9-0.5,1.9-0.8,2.9-0.9l53.6-7.8c5.9-0.8,11.3,3.2,12.1,9.1l2.5,17l0.9-0.1c3.6-0.5,7,2,7.5,5.6l2.7,18.9l0,0
			c3.5-0.5,6.8,1.9,7.3,5.4l1.9,13c0.5,3.4-1.8,6.6-5.2,7.2l0,0c-1.1,0.2-1.9,1.3-1.8,2.4l0.6,4.4c0.9,6.8-3.9,13.1-10.7,14.1
			l-39,5.7c-3.6,0.5-6.6,3.2-7.6,6.7l-10.3,38.7c-3.9,14.5-10.4,28.1-18.4,40.8C487.5,717.3,484.5,720.3,475.5,732.8z"/>
		<path style="fill:#F4B89D;" d="M524.7,625.2l-1.7,1.9c-1,1.1-1.7,2.3-2.3,3.7l-2,5.1l-1-9.5c-0.3-2.6-0.1-5.2,0.5-7.7l4.1-17.5
			l29.5-43.2c3.3-4.8,2.3-11.3-2.2-15l0,0c-4.7-3.8-11.6-3.1-15.5,1.5L496.2,590c-2.9,3.5-7.8,4.4-11.8,2.2L454.7,576
			c-2.2-1.2-2.8-4-1.3-6l0,0c1.2-1.7,3.5-2.1,5.3-1.1l25.9,15c2.7,1.6,6.1,1,8.1-1.4l35.8-42.6c6.6-7.9,18.4-9,26.3-2.4l0,0
			c7.5,6.3,9,17.3,3.3,25.3l-28.2,42.1L524.7,625.2z"/>
		<polygon style="fill:#F4B89D;" points="574.8,572.5 548,577 552.8,570.3 574,567.2 		"/>
		<path style="fill:#F4B89D;" d="M578.8,598.2l-49.8,7.2l0.5-2.5l3.7-5.2l50.6-6.7C583.9,591,584.3,597.4,578.8,598.2z"/>
		<polygon style="fill:#FFC4A4;" points="563.7,548.1 561.3,548.5 559.2,542.7 562.8,542.2 		"/>
		<polygon style="fill:#F4B89D;" points="515.7,555.1 495.1,558.1 494.2,552.1 521.5,548.1 		"/>
		<path style="fill:#777596;" d="M398.5,758.4l97.8,0.1c5.3,0.1,9.6,4.4,9.6,9.8V883H388.7V766.6
			C388.9,761.2,393.1,758.3,398.5,758.4z"/>
		<path style="fill:#777596;" d="M489.1,758.4l0.1-25.2c0-2.6-2.1-4.6-4.6-4.6l-78.3-0.2c-2.6,0-4.6,2.1-4.6,4.6l-0.1,25.2
			L489.1,758.4z"/>
		
			<rect x="441.9" y="711.1" transform="matrix(-2.587154e-03 1 -1 -2.587154e-03 1201.4183 311.4961)" style="fill:#676784;" width="6.8" height="87.6"/>
	</g>
	<g style="clip-path:url(#SVGID_2_);">
		<defs>
			<path id="SVGID_3_" d="M493.8,530.3v51.9l35.8-43.5c0,0,12.1-13,26.2-0.3c14.2,12.7-2.4,31.4-2.4,31.4l-24.2,34.3L525,625l4,5
				l49-9l12-29l-11-44l-18-33l-58,7L493.8,530.3z"/>
		</defs>
		<clipPath id="SVGID_4_">
			<use xlink:href="#SVGID_3_"  style="overflow:visible;"/>
		</clipPath>
		<g style="clip-path:url(#SVGID_4_);">
			<g>
				<g>
					<g>
						<path style="fill:#FFFFFF;" d="M493.8,184v446.6c0,20.1-16.3,36.4-36.4,36.4h410.2c9.3,0,18.6-3.6,25.7-10.7
							c7.1-7.1,10.7-16.4,10.7-25.7V184H493.8z"/>
						<g>
							
								<rect x="501.3" y="165.9" transform="matrix(0.7073 -0.7069 0.7069 0.7073 21.9733 421.0582)" style="fill:#FFFFFF;" width="36.3" height="36.3"/>
							<polygon style="fill:#FFFFFF;" points="570.7,209.6 545,184 570.7,158.4 596.3,184 							"/>
							<polygon style="fill:#FFFFFF;" points="622,209.6 596.3,184 622,158.4 647.6,184 							"/>
							<polygon style="fill:#FFFFFF;" points="673.2,209.6 647.6,184 673.2,158.4 698.9,184 							"/>
							<polygon style="fill:#FFFFFF;" points="724.5,209.6 698.9,184 724.5,158.4 750.2,184 							"/>
							
								<rect x="757.7" y="165.9" transform="matrix(0.7073 -0.7069 0.7069 0.7073 97.0211 602.3002)" style="fill:#FFFFFF;" width="36.3" height="36.3"/>
							<polygon style="fill:#FFFFFF;" points="827.1,209.6 801.4,184 827.1,158.4 852.7,184 							"/>
							<polygon style="fill:#FFFFFF;" points="878.3,209.6 852.7,184 878.3,158.4 904,184 							"/>
						</g>
						<path style="fill:#CCCBCA;" d="M457.4,427.8c-20.1,0-36.4,16.3-36.4,36.4v166.4c0,20.1,16.3,36.4,36.4,36.4
							c20.1,0,36.4-16.3,36.4-36.4V427.8H457.4z"/>
					</g>
					<g>
						<g>
							<rect x="540.1" y="598.1" style="fill:#E6E5E5;" width="148.3" height="18.9"/>
							<rect x="540.1" y="560.2" style="fill:#E6E5E5;" width="148.3" height="18.9"/>
							<rect x="540.1" y="522.4" style="fill:#E6E5E5;" width="148.3" height="18.9"/>
							<rect x="540.1" y="484.5" style="fill:#E6E5E5;" width="148.3" height="18.9"/>
							<rect x="540.1" y="446.7" style="fill:#E6E5E5;" width="148.3" height="18.9"/>
							<rect x="540.1" y="333.2" style="fill:#CCCBCA;" width="148.3" height="94.6"/>
						</g>
						<g>
							<rect x="709.4" y="598.1" style="fill:#E6E5E5;" width="148.3" height="18.9"/>
							<rect x="709.4" y="484.5" style="fill:#EA6552;" width="148.3" height="94.6"/>
							<rect x="709.4" y="446.7" style="fill:#E6E5E5;" width="148.3" height="18.9"/>
							<rect x="709.4" y="408.8" style="fill:#E6E5E5;" width="148.3" height="18.9"/>
							<rect x="709.4" y="371" style="fill:#E6E5E5;" width="148.3" height="18.9"/>
							<rect x="709.4" y="333.2" style="fill:#E6E5E5;" width="148.3" height="18.9"/>
						</g>
						<rect x="540.1" y="295.3" style="fill:#343B43;" width="317.6" height="18.9"/>
					</g>
				</g>
			</g>
			<text transform="matrix(1 0 0 1 539.8462 272.8638)"><tspan x="0" y="0" style="fill:#343B43; font-family:'OpenSans-Bold'; font-size:56.6112px;">JOB </tspan><tspan x="116.5" y="0" style="fill:#EA6552; font-family:'OpenSans-Bold'; font-size:56.6112px;">SEEKER</tspan></text>
		</g>
	</g>
	<g style="clip-path:url(#SVGID_2_);">
		<g>
			
				<rect x="896.1" y="546.1" transform="matrix(0.7532 -0.6578 0.6578 0.7532 -142.4049 732.6214)" style="fill:#495057;" width="17.9" height="20"/>
			<g>
				<path style="fill:#343B43;" d="M777.1,409.6c-39.3,34.3-43.3,93.9-9,133.1c34.3,39.3,93.9,43.3,133.1,9
					c39.2-34.3,43.3-93.9,9-133.1C876,379.4,816.4,375.3,777.1,409.6z"/>
				<path style="fill:#58B4D9;" d="M888.8,537.6c-31.4,27.4-79.1,24.2-106.5-7.2c-27.4-31.4-24.2-79.1,7.2-106.5
					c31.4-27.4,79.1-24.2,106.5,7.2C923.5,462.4,920.2,510.1,888.8,537.6z"/>
				<path style="fill:#8FDEF6;" d="M878.9,526.2c-25.1,21.9-63.3,19.4-85.3-5.8c-22-25.1-19.4-63.3,5.8-85.3
					c25.1-22,63.3-19.4,85.3,5.7C906.7,466.1,904.1,504.3,878.9,526.2z"/>
				
					<ellipse transform="matrix(0.7532 -0.6578 0.6578 0.7532 -109.064 670.6884)" style="fill:#FFFFFF;" cx="839.2" cy="480.7" rx="10.5" ry="10.5"/>
				<path style="fill:#FFFFFF;" d="M811.6,462.1c8.6,9.8,7.6,24.8-2.2,33.4c-9.8,8.6-24.8,7.6-33.4-2.3c-8.6-9.8-7.6-24.8,2.3-33.4
					C788.1,451.2,803,452.2,811.6,462.1z"/>
			</g>
			<path style="fill:#343B43;" d="M930.5,558.4l55.2,63.2c6.4,7.3,5.7,18.4-1.7,24.9c-7.3,6.4-18.5,5.7-24.9-1.7l-55.2-63.2
				L930.5,558.4z"/>
			<path style="fill:#E6E5E5;" d="M930.4,558.4l-26.5,23.2l-1.4-1.6c-1.1-1.2-1.7-2.8-1.5-4.6c0.1-1.7,0.9-3.3,2.1-4.3l17.1-14.9
				c1.2-1.1,2.8-1.6,4.6-1.5c1.7,0.1,3.3,0.9,4.3,2.1L930.4,558.4z"/>
		</g>
		<g>
			<path style="fill:#FFD7B7;" d="M945.3,723.5l73.6-3.3v-14.6c0-2.6,0.9-5.1,2.5-7.1l14.7-18.4c1-1.2,2.8-9.7,2.8-11.2l-1.2-72.4
				c0-4.2-3.4-7.6-7.6-7.6h-10.1c-2.3,0-4.2-1.8-4.2-4.1l-0.3-9.7c-0.1-3.7-3.2-6.6-6.8-6.5l-18.2,0.4c-3.4,0.1-6.1-2.7-6-6.1l0.3-7
				c0-5.3-3.8-8.3-9.1-7.9l-15.5,0.1c-1.2,0-2.2-1-2.2-2.2l0-1.3c0-7.9-6.4-14.2-14.2-14.2h-0.4c-8.2,0-14.7,6.6-14.7,14.6
				c0,32.2,0,62.1,0,56.3c0-12.6,0.1-3.5,0-3.2l-8.3,38.1c-0.3,0.9-0.4,1.8-0.4,2.7v36.6c0,1.8,0.6,3.6,1.7,5.1l16.5,16.7
				c1.8,1.9,3.1,4.2,3.7,6.8L945.3,723.5z"/>
			<path style="fill:#F4B89D;" d="M962.7,585.7h-2.4c-1.4,0-2.5-1.1-2.5-2.5V547l2.2,1h5.2v35.2C965.1,584.6,964,585.7,962.7,585.7z
				"/>
			<path style="fill:#F4B89D;" d="M991.7,606.4h-3c-1.2,0-2.2-1-2.2-2.2v-36.6l3,1.2l4.3-0.1v35.5
				C993.9,605.4,992.9,606.4,991.7,606.4z"/>
			<path style="fill:#F4B89D;" d="M1020.2,626.3h-3.3c-1.1,0-2-0.9-2-2v-44.1l0.5-3.9l0.9,9.9c0.3,1.5,1.7,2.5,3.2,2.5h2.8v35.6
				C1022.3,625.4,1021.3,626.3,1020.2,626.3z"/>
			<path style="fill:#777596;" d="M1026.6,749.7l-96.1,0.1c-5.2,0.1-9.4,4.4-9.4,9.6L919.7,944h119.1l-2.6-186.3
				C1036.1,752.4,1031.9,749.6,1026.6,749.7z"/>
			<path style="fill:#777596;" d="M937.6,752.5l-0.1-27.5c0-2.5,2-4.6,4.5-4.6l76.9-0.2c2.5,0,4.6,2,4.6,4.5l0.1,27.5L937.6,752.5z"
				/>
			
				<rect x="977.2" y="703.2" transform="matrix(2.587154e-03 1 -1 2.587154e-03 1724.262 -236.2693)" style="fill:#676784;" width="6.7" height="86"/>
		</g>
	</g>
	<g style="clip-path:url(#SVGID_2_);">
		
			<rect x="324.3" y="375.5" transform="matrix(9.361392e-02 -0.9956 0.9956 9.361392e-02 -20.7765 735.913)" style="fill:#FECE66;" width="139.1" height="7.8"/>
		
			<rect x="332" y="376.2" transform="matrix(9.361392e-02 -0.9956 0.9956 9.361392e-02 -14.4473 744.3296)" style="fill:#F5B540;" width="139.1" height="7.8"/>
		
			<rect x="339.8" y="376.9" transform="matrix(9.361392e-02 -0.9956 0.9956 9.361392e-02 -8.1181 752.7462)" style="fill:#ECA334;" width="139.1" height="7.8"/>
		<polygon style="fill:#F2F2F2;" points="419.8,312 413.2,297.7 405.5,297 396.4,309.8 		"/>
		<polygon style="fill:#CCCBCA;" points="419.8,312 412,311.2 410.6,297.5 413.2,297.7 		"/>
		<polygon style="fill:#495057;" points="413.2,297.7 410,290.6 405.5,297 		"/>
		
			<rect x="398.6" y="450" transform="matrix(9.361392e-02 -0.9956 0.9956 9.361392e-02 -87.1473 812.1751)" style="fill:#CCCBCA;" width="7.8" height="7.8"/>
		
			<rect x="386.9" y="445" transform="matrix(9.340037e-02 -0.9956 0.9956 9.340037e-02 -96.5646 799.6558)" style="fill:#FFFFFF;" width="7.8" height="15.6"/>
		<path style="fill:#1E262E;" d="M405.8,460l0.2-1.8l-7.8-0.7l-0.2,1.8c-0.3,3-1.7,5.9-4.2,7.9c-1.4,1.1-3,1.9-4.6,2.3
			c1.2,0.6,2.5,0.9,3.8,1c3,0.3,6.1-0.6,8.6-2.6C404.1,465.9,405.6,463,405.8,460z"/>
		<path style="fill:#495057;" d="M398.1,459.3l0.2-1.8l-15.6-1.5l-0.2,1.8c-0.3,3,0.6,6.1,2.6,8.6c1.1,1.4,2.6,2.4,4.1,3.2
			c1.6-0.4,3.2-1.2,4.6-2.3C396.4,465.2,397.8,462.3,398.1,459.3z"/>
	</g>
</g>
</svg>
