<svg xmlns="http://www.w3.org/2000/svg" version="1.1" xmlns:xlink="http://www.w3.org/1999/xlink" xmlns:svgjs="http://svgjs.com/svgjs" width="1920" height="1080" preserveAspectRatio="none" viewBox="0 0 1920 1080"><g mask="url(&quot;#SvgjsMask1273&quot;)" fill="none"><rect width="1920" height="1080" x="0" y="0" fill="url(#SvgjsLinearGradient1274)"></rect><path d="M-113.01864155180647 463.6113559723225L-56.183853849362094 638.530846422986 177.77798797541095 465.81891964398767z" fill="rgba(58, 89, 122, 0.4)" class="triangle-float1"></path><path d="M421.03,1383.597C507.504,1385.199,587.692,1336.634,629.843,1261.112C670.982,1187.403,661.643,1099.079,621.175,1025C578.73,947.303,509.507,875.653,421.03,878.87C336.037,881.961,283.991,963.315,244.602,1038.693C208.896,1107.022,190.093,1184.977,225.203,1253.614C263.444,1328.373,337.072,1382.041,421.03,1383.597" fill="rgba(58, 89, 122, 0.4)" class="triangle-float3"></path><path d="M-11.333376452404735 210.4775592500533L75.43704179119324 388.3832811103447 298.9104154598313 169.27479281480203z" fill="rgba(58, 89, 122, 0.4)" class="triangle-float3"></path><path d="M430.6960944690045 647.4462539714309L245.41452375894056 583.6486929422742 181.61696272978395 768.9302636523382 366.8985334398479 832.7278246814949z" fill="rgba(58, 89, 122, 0.4)" class="triangle-float2"></path><path d="M694.3735165014441 203.62207030340596L841.6775092799338 125.29914802168862 763.3545869982165-22.004844756801106 616.0505942197268 56.31807752491622z" fill="rgba(58, 89, 122, 0.4)" class="triangle-float1"></path><path d="M1633.145,498.124C1745.131,507.835,1871.395,495.687,1932.523,401.355C1997.537,301.027,1972.543,170.601,1912.299,67.339C1852.584,-35.017,1751.479,-118.12,1633.145,-111.803C1522.384,-105.891,1448.636,-5.664,1401.241,94.619C1361.273,179.187,1365.347,275.115,1411.956,356.212C1458.74,437.615,1539.607,490.012,1633.145,498.124" fill="rgba(58, 89, 122, 0.4)" class="triangle-float2"></path><path d="M313.91489780258985 260.0570446417134L147.7332314776267-5.88921407170352-118.21302723579021 160.29245225325963 47.96863908917294 426.23871096667654z" fill="rgba(58, 89, 122, 0.4)" class="triangle-float2"></path><path d="M1706.6154462127263-55.75649777651966L1761.195677527148 201.023301847607 2017.9754771512748 146.44307053318525 1963.395245836853-110.33672909094142z" fill="rgba(58, 89, 122, 0.4)" class="triangle-float1"></path><path d="M1265.7426120361338-40.07225648327371L1122.3157678244804 60.35630101535571 1344.6720261782511 225.2822885835212z" fill="rgba(58, 89, 122, 0.4)" class="triangle-float1"></path><path d="M1533.01,494.445C1585.091,494.89,1640.182,485.294,1668.997,441.908C1700.642,394.261,1704.023,330.687,1674.179,281.892C1645.413,234.861,1588.123,218.157,1533.01,219.571C1480.668,220.914,1430.788,243.928,1403.851,288.826C1376.13,335.03,1372.331,393.989,1400.992,439.616C1428.157,482.863,1481.941,494.008,1533.01,494.445" fill="rgba(58, 89, 122, 0.4)" class="triangle-float3"></path><path d="M682.153,235.956C740.188,238.359,807.491,237.09,837.256,187.211C867.436,136.637,839.319,74.883,808.056,24.972C779.206,-21.089,736.49,-59.212,682.153,-60.414C625.89,-61.658,574.093,-29.708,546.22,19.182C518.607,67.616,518.191,127.991,547.81,175.225C575.793,219.849,629.526,233.777,682.153,235.956" fill="rgba(58, 89, 122, 0.4)" class="triangle-float2"></path></g><defs><mask id="SvgjsMask1273"><rect width="1920" height="1080" fill="#ffffff"></rect></mask><linearGradient x1="50%" y1="0%" x2="50%" y2="100%" gradientUnits="userSpaceOnUse" id="SvgjsLinearGradient1274"><stop stop-color="#0e2a47" offset="0"></stop><stop stop-color="rgba(0, 6, 11, 1)" offset="1"></stop></linearGradient><style>
            @keyframes float1 {
                0%{transform: translate(0, 0)}
                50%{transform: translate(-10px, 0)}
                100%{transform: translate(0, 0)}
            }

            .triangle-float1 {
                animation: float1 5s infinite;
            }

            @keyframes float2 {
                0%{transform: translate(0, 0)}
                50%{transform: translate(-5px, -5px)}
                100%{transform: translate(0, 0)}
            }

            .triangle-float2 {
                animation: float2 4s infinite;
            }

            @keyframes float3 {
                0%{transform: translate(0, 0)}
                50%{transform: translate(0, -10px)}
                100%{transform: translate(0, 0)}
            }

            .triangle-float3 {
                animation: float3 6s infinite;
            }
        </style></defs></svg>